Coordinates
version=1
nRows=13
nColumns=63
inDegrees=yes

Units are S.I. units (second, meters, Newtons, ...)
If the header above contains a line with 'inDegrees', this indicates whether rotational values are in degrees (yes) or radians (no).

endheader
time	pelvis_tilt	pelvis_list	pelvis_rotation	pelvis_tx	pelvis_ty	pelvis_tz	hip_flexion_r	hip_adduction_r	hip_rotation_r	knee_angle_r	knee_angle_r_beta	ankle_angle_r	subtalar_angle_r	mtp_angle_r	hip_flexion_l	hip_adduction_l	hip_rotation_l	knee_angle_l	knee_angle_l_beta	ankle_angle_l	subtalar_angle_l	mtp_angle_l	L5_S1_Flex_Ext	L5_S1_Lat_Bending	L5_S1_axial_rotation	L4_L5_Flex_Ext	L4_L5_Lat_Bending	L4_L5_axial_rotation	L3_L4_Flex_Ext	L3_L4_Lat_Bending	L3_L4_axial_rotation	L2_L3_Flex_Ext	L2_L3_Lat_Bending	L2_L3_axial_rotation	L1_L2_Flex_Ext	L1_L2_Lat_Bending	L1_L2_axial_rotation	L1_T12_Flex_Ext	L1_T12_Lat_Bending	L1_T12_axial_rotation	Abs_r3	Abs_r2	Abs_r1	Abs_t1	Abs_t2	neck_flexion	neck_bending	neck_rotation	arm_flex_r	arm_add_r	arm_rot_r	elbow_flex_r	pro_sup_r	wrist_flex_r	wrist_dev_r	arm_flex_l	arm_add_l	arm_rot_l	elbow_flex_l	pro_sup_l	wrist_flex_l	wrist_dev_l
1.316667	0.820990	-0.523786	87.351155	0.030248	0.875373	0.703835	5.414774	-0.430400	9.418923	16.532005	0.288538	34.786926	-4.801844	0.000000	-2.562964	1.931825	-2.474149	2.074198	0.036202	30.483000	-6.060112	0.000000	0.162422	-0.246084	1.661000	0.301634	-0.327292	1.764813	0.266844	-0.598330	1.764813	0.185632	-0.598330	1.453375	0.150825	-0.501815	1.349563	0.092808	-0.381185	1.245750	1.160166	-2.783757	9.237986	0.000000	0.000000	25.333288	-24.469920	-35.315290	-167.962338	-37.356245	-236.320944	52.349585	68.993053	6.869807	2.507897	150.269623	-21.313132	55.623258	40.612809	85.737924	5.762261	14.866305
1.333333	0.740034	-0.636597	87.681759	0.030207	0.874879	0.703632	5.499538	-0.512939	9.143367	16.582633	0.289422	34.915007	-4.827882	0.000000	-2.436815	1.973377	-2.395061	2.191582	0.038250	30.570986	-5.741562	0.000000	0.179515	-0.254503	1.856014	0.333378	-0.338489	1.972015	0.294926	-0.618798	1.972015	0.205168	-0.618798	1.624012	0.166698	-0.518982	1.508011	0.102575	-0.394225	1.392010	1.282261	-2.878985	10.322592	0.000000	0.000000	26.029915	-24.782712	-36.178207	-163.808749	-37.963943	-227.974394	52.624209	63.764975	5.290661	0.321220	149.606949	-22.235804	54.408985	38.838870	86.187354	7.984174	15.207256
1.350000	0.701199	-0.711938	87.949672	0.030132	0.874430	0.703542	5.559969	-0.559392	8.900132	16.637400	0.290377	35.028761	-4.822762	0.000000	-2.349106	1.978606	-2.352530	2.319072	0.040475	30.676862	-5.433285	0.000000	0.195341	-0.254848	2.001983	0.362767	-0.338948	2.127107	0.320925	-0.619637	2.127107	0.223255	-0.619637	1.751735	0.181393	-0.519686	1.626611	0.111618	-0.394760	1.501487	1.395299	-2.882891	11.134429	0.000000	0.000000	26.701082	-25.005128	-36.711573	-160.365057	-38.280241	-220.703279	52.855269	58.949417	3.546536	-1.697508	148.940499	-23.195177	53.378731	37.354652	86.428480	9.648176	15.432415
1.366667	0.720407	-0.739808	88.159998	0.029976	0.874048	0.703559	5.582721	-0.556977	8.666767	16.685576	0.291218	35.135648	-4.754794	0.000000	-2.308578	1.933661	-2.344819	2.455351	0.042854	30.799871	-5.138266	0.000000	0.208285	-0.244582	2.094332	0.386805	-0.325295	2.225228	0.342191	-0.594678	2.225228	0.238048	-0.594678	1.832540	0.193413	-0.498752	1.701645	0.119014	-0.378858	1.570749	1.487756	-2.766765	11.648046	0.000000	0.000000	27.275776	-25.182506	-36.957575	-157.865732	-38.330023	-215.104552	53.023073	54.827003	1.872764	-3.404107	148.319912	-24.144872	52.585900	36.229586	86.438003	10.627140	15.532858
1.383333	0.776626	-0.731824	88.294009	0.029782	0.873717	0.703656	5.589087	-0.533439	8.401886	16.738448	0.292141	35.270775	-4.515914	0.000000	-2.306862	1.862143	-2.350363	2.595718	0.045304	30.931883	-4.900166	0.000000	0.217511	-0.227629	2.144223	0.403940	-0.302746	2.278237	0.357349	-0.553456	2.278237	0.248593	-0.553456	1.876195	0.201981	-0.464180	1.742181	0.124286	-0.352597	1.608167	1.553659	-2.574980	11.925526	0.000000	0.000000	27.754504	-25.285461	-36.974863	-156.296352	-38.043651	-211.104567	53.099786	51.069747	0.502501	-4.943695	147.912856	-25.039030	52.383275	35.454438	86.002947	10.898909	15.401641
1.400000	0.863510	-0.681224	88.384387	0.029569	0.873471	0.703827	5.561062	-0.481924	8.155330	16.777368	0.292820	35.409865	-4.221225	0.000000	-2.346637	1.765289	-2.376705	2.740750	0.047835	31.065462	-4.673699	0.000000	0.222074	-0.206396	2.145424	0.412414	-0.274506	2.279513	0.364845	-0.501831	2.279513	0.253808	-0.501831	1.877246	0.206218	-0.420882	1.743157	0.126893	-0.319707	1.609068	1.586252	-2.334790	11.932206	0.000000	0.000000	28.043416	-25.254308	-36.763938	-155.930666	-37.585455	-209.452516	53.072980	48.302160	-0.314975	-6.094069	147.695662	-25.798472	52.541416	35.093324	85.412344	10.773935	15.165920
1.416667	0.954672	-0.602746	88.454933	0.029377	0.873296	0.704050	5.517267	-0.428855	7.889717	16.816431	0.293502	35.570346	-3.856121	0.000000	-2.415936	1.666155	-2.388616	2.878459	0.050239	31.179170	-4.472546	0.000000	0.222280	-0.186299	2.107016	0.412796	-0.247778	2.238705	0.365184	-0.452968	2.238705	0.254044	-0.452968	1.843639	0.206409	-0.379902	1.711951	0.127011	-0.288578	1.580262	1.587725	-2.107457	11.718593	0.000000	0.000000	28.106534	-25.084076	-36.470838	-156.711681	-37.038478	-210.128455	52.906822	46.603282	-0.327223	-6.860979	147.699219	-26.363169	53.090945	35.161272	84.800262	10.328770	14.699854
1.433333	1.070404	-0.502786	88.528697	0.029125	0.873198	0.704268	5.445393	-0.358052	7.578597	16.835024	0.293827	35.732679	-3.432108	0.000000	-2.511896	1.547249	-2.308227	3.001710	0.052390	31.257696	-4.383553	0.000000	0.219065	-0.163986	2.055013	0.406825	-0.218101	2.183452	0.359901	-0.398715	2.183452	0.250369	-0.398715	1.798137	0.203423	-0.334400	1.669698	0.125173	-0.254014	1.541260	1.564756	-1.855039	11.429367	0.000000	0.000000	27.898830	-24.856625	-36.216704	-158.318862	-36.480151	-212.539267	52.574287	45.946057	0.483711	-7.248043	147.641476	-26.624557	53.300471	35.710403	84.618636	9.925650	14.087402
1.450000	1.183438	-0.394919	88.621262	0.028866	0.873148	0.704434	5.354685	-0.285763	7.274861	16.839493	0.293905	35.877834	-3.055585	0.000000	-2.619406	1.431777	-2.152812	3.107603	0.054238	31.306069	-4.372433	0.000000	0.212788	-0.144910	1.997919	0.395169	-0.192730	2.122789	0.349590	-0.352334	2.122789	0.243196	-0.352334	1.748180	0.197595	-0.295500	1.623310	0.121587	-0.224465	1.498440	1.519925	-1.639250	11.111829	0.000000	0.000000	27.535891	-24.512542	-36.081287	-160.377041	-35.968050	-215.981199	52.121491	46.255181	1.963017	-7.319695	147.590251	-26.536913	53.339589	36.777436	84.502560	9.390609	13.289849
1.466667	1.282507	-0.295177	88.752072	0.028607	0.873135	0.704519	5.257329	-0.218067	6.993443	16.835724	0.293839	35.984161	-2.793603	0.000000	-2.718246	1.327930	-1.943850	3.193995	0.055746	31.325919	-4.402599	0.000000	0.204278	-0.131460	1.945280	0.379365	-0.174842	2.066860	0.335609	-0.319633	2.066860	0.233470	-0.319633	1.702120	0.189693	-0.268074	1.580540	0.116725	-0.203632	1.458960	1.459139	-1.487106	10.819066	0.000000	0.000000	27.127101	-24.054182	-36.118710	-162.494274	-35.461745	-219.755634	51.620939	47.375573	3.861090	-7.142281	147.475274	-26.066875	52.996745	38.405244	84.285110	8.683973	12.274076
1.483333	1.368627	-0.211883	88.927821	0.028321	0.873146	0.704485	5.154192	-0.153353	6.747563	16.820160	0.293567	36.033840	-2.682452	0.000000	-2.798874	1.234392	-1.720961	3.259088	0.056882	31.339349	-4.415874	0.000000	0.194737	-0.122840	1.902233	0.361646	-0.163377	2.021122	0.319933	-0.298673	2.021122	0.222565	-0.298673	1.664453	0.180833	-0.250495	1.545564	0.111273	-0.190279	1.426674	1.390985	-1.389591	10.579647	0.000000	0.000000	26.717662	-23.551588	-36.330212	-164.368090	-34.857155	-223.148683	51.132200	48.748376	5.720977	-6.765638	147.207316	-25.236143	51.970801	40.625262	83.963335	7.838750	11.021910
1.500000	1.441546	-0.141060	89.147196	0.028007	0.873203	0.704336	5.038557	-0.091456	6.543956	16.789892	0.293039	36.010072	-2.739516	0.000000	-2.864928	1.151899	-1.499391	3.299015	0.057579	31.349842	-4.402297	0.000000	0.185222	-0.118866	1.858937	0.343975	-0.158092	1.975120	0.304301	-0.289011	1.975120	0.211690	-0.289011	1.626569	0.171997	-0.242392	1.510386	0.105836	-0.184124	1.394202	1.323019	-1.344637	10.338847	0.000000	0.000000	26.271898	-23.039795	-36.669139	-166.112768	-34.205565	-226.508292	50.653746	50.692787	7.498783	-6.062902	146.758396	-24.096768	50.145289	43.390236	83.492063	6.856757	9.566132
1.516667	1.515497	-0.073450	89.415112	0.027630	0.873326	0.704080	4.893170	-0.023276	6.358215	16.728623	0.291970	35.911478	-2.931369	0.000000	-2.923384	1.066149	-1.300936	3.318398	0.057917	31.372871	-4.320532	0.000000	0.176886	-0.116941	1.800628	0.328496	-0.155531	1.913168	0.290607	-0.284330	1.913168	0.202163	-0.284330	1.575550	0.164257	-0.238466	1.463011	0.101073	-0.181141	1.350471	1.263482	-1.322857	10.014555	0.000000	0.000000	25.698935	-22.572788	-37.072514	-167.929222	-33.528847	-230.345770	50.170700	53.349748	9.214532	-4.877983	146.174998	-22.735505	47.690373	46.555133	82.929032	5.717565	7.995454
